<svg version="1.1" id="Layer_1" xmlns="http://www.w3.org/2000/svg" xmlns:xlink="http://www.w3.org/1999/xlink" x="0px" y="0px"
	 width="100%" viewBox="0 0 980 980" enable-background="new 0 0 980 980" xml:space="preserve">
<path fill="#F3F7FA" opacity="1.000000" stroke="none" 
	d="
M524.000000,981.000000 
	C349.333344,981.000000 175.166672,981.000000 1.000000,981.000000 
	C1.000000,654.333313 1.000000,327.666656 1.000000,1.000000 
	C327.666656,1.000000 654.333313,1.000000 981.000000,1.000000 
	C981.000000,327.666656 981.000000,654.333313 981.000000,981.000000 
	C828.833313,981.000000 676.666687,981.000000 524.000000,981.000000 
M229.994522,863.996399 
	C229.994522,863.996399 229.956375,864.032532 230.325348,864.589233 
	C239.119995,870.192078 247.914658,875.794983 256.999115,881.313477 
	C256.999115,881.313477 256.707947,881.376221 257.091797,881.916931 
	C260.724396,883.956787 264.356995,885.996704 268.140045,888.242554 
	C268.140045,888.242554 268.393677,888.215942 268.774506,888.722229 
	C269.169525,888.851624 269.564545,888.981018 269.965424,889.024841 
	C269.965424,889.024841 269.898712,889.078857 270.304565,889.622681 
	C333.311096,924.733215 400.919281,943.628662 472.917206,946.712341 
	C506.106079,948.133789 539.123047,945.878235 571.777649,939.700989 
	C583.814819,937.423889 595.638428,934.017517 608.305115,931.323059 
	C647.915405,921.089844 685.290161,905.352722 720.409119,884.512939 
	C799.731445,837.442688 860.093689,772.601868 900.893616,689.793396 
	C926.897888,637.014465 941.603271,581.106689 945.802307,522.468384 
	C948.106018,490.297974 946.756287,458.232483 942.160461,426.277100 
	C933.832642,368.372131 915.048157,314.091156 885.607483,263.603607 
	C843.730469,191.789093 786.631348,135.167725 714.313477,94.082245 
	C648.125122,56.479080 576.805786,37.103802 500.781006,35.256268 
	C456.214691,34.173225 412.398071,39.711849 369.436981,51.784157 
	C284.294159,75.709763 212.058853,120.689934 152.858932,186.150421 
	C94.843689,250.300964 57.677029,325.149445 42.564014,410.432220 
	C38.861191,431.327240 38.012062,452.727966 35.672253,474.733063 
	C35.469463,477.888489 35.132648,481.041901 35.084515,484.199677 
	C34.575157,517.615601 37.658611,550.706116 44.549683,583.405029 
	C61.250401,662.651917 96.686302,732.510010 150.281937,793.147034 
	C168.387863,813.631714 188.009491,832.567078 210.248688,849.625244 
	C216.822815,854.430969 223.396942,859.236755 229.994522,863.996399 
z"/>
<path fill="#3E6FBB" opacity="1.000000" stroke="none" 
	d="
M35.850937,473.896210 
	C38.012062,452.727966 38.861191,431.327240 42.564014,410.432220 
	C57.677029,325.149445 94.843689,250.300964 152.858932,186.150421 
	C212.058853,120.689934 284.294159,75.709763 369.436981,51.784157 
	C412.398071,39.711849 456.214691,34.173225 500.781006,35.256268 
	C576.805786,37.103802 648.125122,56.479080 714.313477,94.082245 
	C786.631348,135.167725 843.730469,191.789093 885.607483,263.603607 
	C915.048157,314.091156 933.832642,368.372131 942.160461,426.277100 
	C946.756287,458.232483 948.106018,490.297974 945.802307,522.468384 
	C941.603271,581.106689 926.897888,637.014465 900.893616,689.793396 
	C860.093689,772.601868 799.731445,837.442688 720.409119,884.512939 
	C685.290161,905.352722 647.915405,921.089844 607.470337,931.211060 
	C601.069641,932.069031 595.503723,933.039062 590.101318,933.713013 
	C599.216858,923.407227 608.099182,913.334045 617.140808,903.406006 
	C626.068909,893.602783 635.252014,884.031250 644.155273,874.205933 
	C658.402710,858.483215 672.452393,842.581238 686.698608,826.857422 
	C696.826599,815.679016 707.206482,804.728943 717.356689,793.570312 
	C734.526733,774.694031 751.433472,755.574585 768.821106,736.902039 
	C774.237732,731.085266 778.610046,725.440857 777.336304,716.840515 
	C778.702209,714.168030 780.398621,711.739319 780.669617,709.160889 
	C781.026245,705.768005 780.016296,702.257385 780.015076,698.797302 
	C779.974304,580.024109 779.851379,461.250610 780.155945,342.478210 
	C780.193176,327.951874 767.829529,317.076416 754.606689,317.024323 
	C743.279358,316.979675 731.946960,316.838898 720.626221,317.118927 
	C716.070007,317.231659 711.538818,318.352783 706.583130,319.073059 
	C699.797852,319.730499 693.425781,320.329926 686.891602,320.723450 
	C686.238464,320.358398 685.747314,320.199280 684.963074,319.708984 
	C682.687134,319.258148 680.704468,319.036011 678.721619,319.034271 
	C652.914307,319.011688 627.106934,319.020355 601.299622,319.021149 
	C599.546204,319.021210 597.792847,319.021149 595.812927,319.021149 
	C595.812927,303.251801 595.926147,288.274780 595.723328,273.302032 
	C595.679565,270.071503 595.122559,266.549652 593.721191,263.691925 
	C589.573242,255.233047 582.073181,252.571945 573.053833,252.585541 
	C521.772278,252.662766 470.490295,252.704544 419.209045,252.558411 
	C408.520966,252.527954 397.896393,251.901840 389.037109,260.180420 
	C388.536926,260.929169 388.361511,261.556152 388.265930,262.197113 
	C388.345764,262.211121 388.351013,262.373169 388.032959,262.216583 
	C387.484528,262.016968 387.254120,261.973938 386.645050,261.938934 
	C384.427948,262.678040 382.470215,263.201233 380.771606,264.176025 
	C373.165070,268.541199 365.645111,273.056915 358.070496,277.478180 
	C337.245178,289.633789 316.454010,301.848969 295.551147,313.869934 
	C288.159882,318.120483 280.484863,321.877655 272.946869,325.447815 
	C272.935974,323.266541 272.999237,321.488983 272.814728,319.737549 
	C272.785736,319.462311 271.633057,319.305450 270.663727,319.075012 
	C269.882629,318.998566 269.437775,318.941010 268.773102,318.564331 
	C266.672821,317.848083 264.795471,317.125610 262.911316,317.107361 
	C251.780304,316.999542 240.639236,317.327209 229.518036,316.979980 
	C218.314941,316.630219 205.225006,323.720795 202.028198,337.347351 
	C199.988495,339.901917 198.139542,342.294128 195.896851,344.230286 
	C183.871796,354.612152 171.803452,364.945557 159.642212,375.167389 
	C149.629868,383.583038 139.404114,391.744812 129.394363,400.163452 
	C123.208214,405.366241 117.387886,411.007080 111.156448,416.152252 
	C101.482162,424.140167 91.516106,431.774170 81.821182,439.737701 
	C67.747208,451.298340 53.831409,463.051788 39.722031,474.568481 
	C39.057377,475.110992 37.169270,474.154572 35.850937,473.896210 
z"/>
<path fill="#30598B" opacity="1.000000" stroke="none" 
	d="
M35.761597,474.314636 
	C37.169270,474.154572 39.057377,475.110992 39.722031,474.568481 
	C53.831409,463.051788 67.747208,451.298340 81.821182,439.737701 
	C91.516106,431.774170 101.482162,424.140167 111.156448,416.152252 
	C117.387886,411.007080 123.208214,405.366241 129.394363,400.163452 
	C139.404114,391.744812 149.629868,383.583038 159.642212,375.167389 
	C171.803452,364.945557 183.871796,354.612152 195.896851,344.230286 
	C198.139542,342.294128 199.988495,339.901917 202.311523,337.356812 
	C202.981308,337.019135 203.358749,337.044769 203.718445,337.479004 
	C203.502869,340.540710 203.132614,343.193787 203.132019,345.846893 
	C203.105438,464.124908 203.111832,582.402893 203.113007,700.680908 
	C203.113174,717.778320 208.861725,725.378479 225.302353,730.052979 
	C227.654877,730.605408 229.777374,730.975098 231.899933,730.975403 
	C405.131500,731.002869 578.363037,731.001709 751.594604,731.002136 
	C753.759949,731.002136 755.954712,731.204285 758.078125,730.904480 
	C759.119141,730.757507 760.027771,729.673523 761.259888,728.788208 
	C767.804382,726.530640 772.447327,722.443970 776.269470,717.013916 
	C776.693420,717.018616 776.862976,717.018127 777.032593,717.017700 
	C778.610046,725.440857 774.237732,731.085266 768.821106,736.902039 
	C751.433472,755.574585 734.526733,774.694031 717.356689,793.570312 
	C707.206482,804.728943 696.826599,815.679016 686.698608,826.857422 
	C672.452393,842.581238 658.402710,858.483215 644.155273,874.205933 
	C635.252014,884.031250 626.068909,893.602783 617.140808,903.406006 
	C608.099182,913.334045 599.216858,923.407227 589.752197,933.873291 
	C582.754761,935.560303 576.303101,937.019348 569.777039,937.966187 
	C560.790588,939.269897 551.750244,940.205261 542.728943,941.264038 
	C531.917480,942.532776 521.129333,944.363098 510.281036,944.862671 
	C496.661804,945.489868 482.991730,945.033447 469.343750,944.990479 
	C467.534363,944.984802 465.720642,944.703125 463.917969,944.477112 
	C454.806671,943.334717 445.708221,942.081787 436.585815,941.037598 
	C429.033020,940.173096 421.283173,940.306030 413.919159,938.660706 
	C396.208374,934.703735 378.517578,930.490967 361.112976,925.379578 
	C345.682190,920.847900 330.445801,915.472900 315.504181,909.515686 
	C304.103577,904.970276 293.347290,898.826965 282.201813,893.613831 
	C278.256775,891.768616 274.008514,890.571777 269.898712,889.078857 
	C269.898712,889.078857 269.965424,889.024841 269.783142,888.800049 
	C269.198486,888.455505 268.796082,888.335754 268.393677,888.215942 
	C268.393677,888.215942 268.140045,888.242554 268.027161,887.786621 
	C264.178864,885.345825 260.443420,883.361023 256.707947,881.376221 
	C256.707947,881.376221 256.999115,881.313477 256.824768,881.000122 
	C250.288635,876.135498 244.018387,871.447021 237.514389,867.109070 
	C235.297363,865.630310 232.492599,865.032715 229.956375,864.032532 
	C229.956375,864.032532 229.994522,863.996399 229.990646,863.620728 
	C229.617737,862.043457 229.627579,860.311707 228.814911,859.730957 
	C225.046234,857.038025 221.120392,854.541382 217.106628,852.224365 
	C214.845779,850.919250 212.305222,850.098633 209.890686,849.059814 
	C188.009491,832.567078 168.387863,813.631714 150.281937,793.147034 
	C96.686302,732.510010 61.250401,662.651917 44.549683,583.405029 
	C37.658611,550.706116 34.575157,517.615601 35.084515,484.199677 
	C35.132648,481.041901 35.469463,477.888489 35.761597,474.314636 
z"/>
<path fill="#476483" opacity="1.000000" stroke="none" 
	d="
M270.101624,889.350769 
	C274.008514,890.571777 278.256775,891.768616 282.201813,893.613831 
	C293.347290,898.826965 304.103577,904.970276 315.504181,909.515686 
	C330.445801,915.472900 345.682190,920.847900 361.112976,925.379578 
	C378.517578,930.490967 396.208374,934.703735 413.919159,938.660706 
	C421.283173,940.306030 429.033020,940.173096 436.585815,941.037598 
	C445.708221,942.081787 454.806671,943.334717 463.917969,944.477112 
	C465.720642,944.703125 467.534363,944.984802 469.343750,944.990479 
	C482.991730,945.033447 496.661804,945.489868 510.281036,944.862671 
	C521.129333,944.363098 531.917480,942.532776 542.728943,941.264038 
	C551.750244,940.205261 560.790588,939.269897 569.777039,937.966187 
	C576.303101,937.019348 582.754761,935.560303 589.588745,934.169434 
	C595.503723,933.039062 601.069641,932.069031 607.097473,931.112610 
	C595.638428,934.017517 583.814819,937.423889 571.777649,939.700989 
	C539.123047,945.878235 506.106079,948.133789 472.917206,946.712341 
	C400.919281,943.628662 333.311096,924.733215 270.101624,889.350769 
z"/>
<path fill="#476483" opacity="1.000000" stroke="none" 
	d="
M230.140869,864.310913 
	C232.492599,865.032715 235.297363,865.630310 237.514389,867.109070 
	C244.018387,871.447021 250.288635,876.135498 256.679871,881.042236 
	C247.914658,875.794983 239.119995,870.192078 230.140869,864.310913 
z"/>
<path fill="#476483" opacity="1.000000" stroke="none" 
	d="
M210.069672,849.342529 
	C212.305222,850.098633 214.845779,850.919250 217.106628,852.224365 
	C221.120392,854.541382 225.046234,857.038025 228.814911,859.730957 
	C229.627579,860.311707 229.617737,862.043457 229.978928,863.643799 
	C223.396942,859.236755 216.822815,854.430969 210.069672,849.342529 
z"/>
<path fill="#476483" opacity="1.000000" stroke="none" 
	d="
M256.899872,881.646606 
	C260.443420,883.361023 264.178864,885.345825 267.951965,887.683655 
	C264.356995,885.996704 260.724396,883.956787 256.899872,881.646606 
z"/>
<path fill="#476483" opacity="1.000000" stroke="none" 
	d="
M268.584106,888.469116 
	C268.796082,888.335754 269.198486,888.455505 269.780212,888.842896 
	C269.564545,888.981018 269.169525,888.851624 268.584106,888.469116 
z"/>
<path fill="#FEFFFF" opacity="1.000000" stroke="none" 
	d="
M225.072372,729.697754 
	C208.861725,725.378479 203.113174,717.778320 203.113007,700.680908 
	C203.111832,582.402893 203.105438,464.124908 203.132019,345.846893 
	C203.132614,343.193787 203.502869,340.540710 203.925415,337.178223 
	C209.358002,323.952850 216.592606,319.156799 230.184433,319.110535 
	C243.120697,319.066498 256.056732,318.961609 268.992889,318.883453 
	C269.437775,318.941010 269.882629,318.998566 270.713745,319.516479 
	C271.282410,322.040924 271.464813,324.104980 271.561676,326.488342 
	C271.558838,327.229736 271.641571,327.651855 271.570801,328.512878 
	C271.382599,384.830231 271.340698,440.708679 271.345001,496.587128 
	C271.345123,498.389740 271.817383,500.192261 272.029297,502.374878 
	C274.672638,507.141754 277.356232,511.528625 280.026733,515.950928 
	C280.013672,515.986450 280.084625,515.960266 280.228485,516.264771 
	C287.221710,522.739380 295.477142,524.215088 304.375366,524.211060 
	C428.865997,524.155396 553.356689,524.175720 677.847351,524.166199 
	C680.011597,524.166077 682.200745,524.207642 684.335754,523.917419 
	C692.501953,522.807190 699.738831,519.872253 705.059570,512.782959 
	C705.598999,512.113525 705.890869,511.608429 706.442017,510.931335 
	C707.107483,509.835266 707.513672,508.911224 708.058716,507.782166 
	C708.197571,507.577179 708.214355,507.082245 708.159790,507.071930 
	C708.105225,507.061615 708.116150,507.172150 708.414551,506.913147 
	C709.292725,503.240295 710.347778,499.830078 710.374268,496.411926 
	C710.530029,476.265411 710.457825,456.117065 710.440674,435.969330 
	C710.407898,397.340912 710.360657,358.712463 710.640198,319.838379 
	C712.590942,319.428314 714.220276,319.127258 715.850708,319.121338 
	C728.009460,319.077087 740.168335,319.087585 752.327209,319.088135 
	C768.546204,319.088867 778.560791,329.053497 778.559570,345.123566 
	C778.550415,463.713837 778.583313,582.304199 778.439941,700.894287 
	C778.433411,706.266724 776.859192,711.637390 776.015137,717.008850 
	C772.447327,722.443970 767.804382,726.530640 760.831970,728.760742 
	C756.245728,729.168701 752.351013,729.561707 748.456177,729.562439 
	C578.658630,729.592957 408.861053,729.587769 239.063507,729.593201 
	C234.399796,729.593384 229.736084,729.661438 225.072372,729.697754 
z"/>
<path fill="#FEFEFF" opacity="1.000000" stroke="none" 
	d="
M389.361877,260.058655 
	C397.896393,251.901840 408.520966,252.527954 419.209045,252.558411 
	C470.490295,252.704544 521.772278,252.662766 573.053833,252.585541 
	C582.073181,252.571945 589.573242,255.233047 593.721191,263.691925 
	C595.122559,266.549652 595.679565,270.071503 595.723328,273.302032 
	C595.926147,288.274780 595.812927,303.251801 595.812927,319.021149 
	C597.792847,319.021149 599.546204,319.021210 601.299622,319.021149 
	C627.106934,319.020355 652.914307,319.011688 678.721619,319.034271 
	C680.704468,319.036011 682.687134,319.258148 684.864868,320.166473 
	C685.036011,377.103638 685.014160,433.252136 684.986511,489.400665 
	C684.981873,498.760071 684.970032,498.764709 675.422363,498.764496 
	C552.127625,498.761688 428.832916,498.763641 305.538208,498.714417 
	C302.740967,498.713287 299.944000,498.127777 297.112793,497.884766 
	C297.078674,497.954651 297.192993,497.849152 297.149780,497.393585 
	C297.106537,437.748810 297.106537,378.559601 297.106537,318.881348 
	C327.055115,318.881348 356.430725,318.881348 386.154663,318.881348 
	C386.154663,304.272827 385.979340,290.149261 386.255463,276.034485 
	C386.344788,271.468811 387.618866,266.926270 388.351013,262.373169 
	C388.351013,262.373169 388.345764,262.211121 388.574707,262.081116 
	C388.989746,261.320282 389.175812,260.689484 389.361877,260.058655 
M416.256104,278.243134 
	C414.863281,278.322235 413.470459,278.401306 411.867096,278.492371 
	C411.983521,281.052521 412.073486,283.030548 412.013031,285.795776 
	C412.063507,286.860016 412.114014,287.924225 411.978882,289.911285 
	C411.978882,299.495361 411.978882,309.079468 411.978882,318.665375 
	C464.990662,318.665375 517.427429,318.665375 570.069458,318.665375 
	C570.069458,305.629059 570.085022,292.997711 570.020935,280.366821 
	C570.017944,279.768402 569.308105,279.173615 568.027893,278.339081 
	C521.538879,278.324005 475.049896,278.303650 428.560913,278.303680 
	C424.734497,278.303680 420.908051,278.442444 416.256104,278.243134 
z"/>
<path fill="#2F598B" opacity="1.000000" stroke="none" 
	d="
M271.724274,328.073944 
	C271.641571,327.651855 271.558838,327.229736 271.782227,326.460632 
	C272.361511,325.993744 272.645203,325.909241 272.939423,325.860107 
	C280.484863,321.877655 288.159882,318.120483 295.551147,313.869934 
	C316.454010,301.848969 337.245178,289.633789 358.070496,277.478180 
	C365.645111,273.056915 373.165070,268.541199 380.771606,264.176025 
	C382.470215,263.201233 384.427948,262.678040 386.467560,262.291473 
	C386.110779,264.314545 385.113831,265.980255 385.064301,267.673706 
	C384.665741,281.298096 384.370941,294.926727 384.200897,308.556061 
	C384.107971,316.004944 384.243988,315.933075 376.729950,316.020782 
	C351.520142,316.314941 326.311432,316.789795 301.101105,316.889313 
	C296.198853,316.908691 294.879669,318.508606 294.913513,323.242950 
	C295.104187,349.905182 295.006287,376.569489 295.005981,403.233093 
	C295.005646,433.062988 294.968353,462.893066 295.097137,492.722412 
	C295.104523,494.434296 296.463196,496.140381 297.192993,497.849152 
	C297.192993,497.849152 297.078674,497.954651 297.105164,498.265045 
	C299.482300,499.641327 301.753998,501.288818 304.204163,501.621460 
	C307.077118,502.011414 310.105194,501.033264 313.066101,501.032349 
	C434.305176,500.994537 555.544250,501.009796 676.783264,500.937622 
	C679.515381,500.936005 682.351379,500.293304 684.927185,499.363342 
	C685.949829,498.994141 687.012939,497.026917 687.014771,495.785706 
	C687.100037,437.500366 687.070251,379.214813 687.053650,320.929321 
	C693.425781,320.329926 699.797852,319.730499 706.755859,319.295258 
	C707.874939,319.614258 708.408020,319.769104 708.959473,320.399872 
	C708.982788,364.523712 709.072754,408.171906 708.952454,451.819458 
	C708.901611,470.270996 708.408325,488.721283 708.116150,507.172150 
	C708.116150,507.172150 708.105225,507.061615 707.905518,507.143860 
	C707.470825,507.476746 707.235901,507.727448 706.668457,508.035309 
	C706.284790,509.096100 706.233765,510.099701 706.182739,511.103333 
	C705.890869,511.608429 705.598999,512.113525 704.697266,512.805908 
	C701.910339,514.135376 699.810547,515.470337 697.540405,516.380432 
	C692.583496,518.367432 687.543762,521.750122 682.531250,521.761963 
	C555.567627,522.062500 428.603241,522.003845 301.638947,521.969543 
	C299.509155,521.968994 297.284698,521.798462 295.268341,521.176147 
	C290.157318,519.598816 285.139679,517.718994 280.084625,515.960266 
	C280.084625,515.960266 280.013672,515.986450 280.017029,515.560547 
	C279.728729,513.863525 279.724762,512.421936 279.091431,511.353363 
	C277.194183,508.152435 275.050903,505.097321 273.005432,501.517548 
	C273.003632,445.201599 273.012024,389.353424 272.943054,333.505280 
	C272.940796,331.694336 272.148376,329.884369 271.724274,328.073944 
z"/>
<path fill="#3A5879" opacity="1.000000" stroke="none" 
	d="
M686.891602,320.723450 
	C687.070251,379.214813 687.100037,437.500366 687.014771,495.785706 
	C687.012939,497.026917 685.949829,498.994141 684.927185,499.363342 
	C682.351379,500.293304 679.515381,500.936005 676.783264,500.937622 
	C555.544250,501.009796 434.305176,500.994537 313.066101,501.032349 
	C310.105194,501.033264 307.077118,502.011414 304.204163,501.621460 
	C301.753998,501.288818 299.482300,499.641327 297.139282,498.195129 
	C299.944000,498.127777 302.740967,498.713287 305.538208,498.714417 
	C428.832916,498.763641 552.127625,498.761688 675.422363,498.764496 
	C684.970032,498.764709 684.981873,498.760071 684.986511,489.400665 
	C685.014160,433.252136 685.036011,377.103638 685.157959,320.497620 
	C685.747314,320.199280 686.238464,320.358398 686.891602,320.723450 
z"/>
<path fill="#5D80AC" opacity="1.000000" stroke="none" 
	d="
M708.941162,319.923950 
	C708.408020,319.769104 707.874939,319.614258 707.169006,319.237183 
	C711.538818,318.352783 716.070007,317.231659 720.626221,317.118927 
	C731.946960,316.838898 743.279358,316.979675 754.606689,317.024323 
	C767.829529,317.076416 780.193176,327.951874 780.155945,342.478210 
	C779.851379,461.250610 779.974304,580.024109 780.015076,698.797302 
	C780.016296,702.257385 781.026245,705.768005 780.669617,709.160889 
	C780.398621,711.739319 778.702209,714.168030 777.336304,716.840515 
	C776.862976,717.018127 776.693420,717.018616 776.269470,717.013916 
	C776.859192,711.637390 778.433411,706.266724 778.439941,700.894287 
	C778.583313,582.304199 778.550415,463.713837 778.559570,345.123566 
	C778.560791,329.053497 768.546204,319.088867 752.327209,319.088135 
	C740.168335,319.087585 728.009460,319.077087 715.850708,319.121338 
	C714.220276,319.127258 712.590942,319.428314 710.295776,319.797058 
	C709.400696,319.975586 709.170959,319.949768 708.941162,319.923950 
z"/>
<path fill="#3F5C7C" opacity="1.000000" stroke="none" 
	d="
M297.149780,497.393585 
	C296.463196,496.140381 295.104523,494.434296 295.097137,492.722412 
	C294.968353,462.893066 295.005646,433.062988 295.005981,403.233093 
	C295.006287,376.569489 295.104187,349.905182 294.913513,323.242950 
	C294.879669,318.508606 296.198853,316.908691 301.101105,316.889313 
	C326.311432,316.789795 351.520142,316.314941 376.729950,316.020782 
	C384.243988,315.933075 384.107971,316.004944 384.200897,308.556061 
	C384.370941,294.926727 384.665741,281.298096 385.064301,267.673706 
	C385.113831,265.980255 386.110779,264.314545 386.846222,262.283447 
	C387.254120,261.973938 387.484528,262.016968 388.032959,262.216583 
	C387.618866,266.926270 386.344788,271.468811 386.255463,276.034485 
	C385.979340,290.149261 386.154663,304.272827 386.154663,318.881348 
	C356.430725,318.881348 327.055115,318.881348 297.106537,318.881348 
	C297.106537,378.559601 297.106537,437.748810 297.149780,497.393585 
z"/>
<path fill="#6A85A7" opacity="1.000000" stroke="none" 
	d="
M268.773102,318.564331 
	C256.056732,318.961609 243.120697,319.066498 230.184433,319.110535 
	C216.592606,319.156799 209.358002,323.952850 203.943161,336.769592 
	C203.358749,337.044769 202.981308,337.019135 202.320557,336.984009 
	C205.225006,323.720795 218.314941,316.630219 229.518036,316.979980 
	C240.639236,317.327209 251.780304,316.999542 262.911316,317.107361 
	C264.795471,317.125610 266.672821,317.848083 268.773102,318.564331 
z"/>
<path fill="#6A85A7" opacity="1.000000" stroke="none" 
	d="
M272.946869,325.447815 
	C272.645203,325.909241 272.361511,325.993744 271.867798,326.141327 
	C271.464813,324.104980 271.282410,322.040924 271.049988,319.535370 
	C271.633057,319.305450 272.785736,319.462311 272.814728,319.737549 
	C272.999237,321.488983 272.935974,323.266541 272.946869,325.447815 
z"/>
<path fill="#3F5C7C" opacity="1.000000" stroke="none" 
	d="
M389.037109,260.180420 
	C389.175812,260.689484 388.989746,261.320282 388.494873,262.067108 
	C388.361511,261.556152 388.536926,260.929169 389.037109,260.180420 
z"/>
<path fill="#2E4B6C" opacity="1.000000" stroke="none" 
	d="
M225.302353,730.052979 
	C229.736084,729.661438 234.399796,729.593384 239.063507,729.593201 
	C408.861053,729.587769 578.658630,729.592957 748.456177,729.562439 
	C752.351013,729.561707 756.245728,729.168701 760.568420,728.986145 
	C760.027771,729.673523 759.119141,730.757507 758.078125,730.904480 
	C755.954712,731.204285 753.759949,731.002136 751.594604,731.002136 
	C578.363037,731.001709 405.131500,731.002869 231.899933,730.975403 
	C229.777374,730.975098 227.654877,730.605408 225.302353,730.052979 
z"/>
<path fill="#3C597B" opacity="1.000000" stroke="none" 
	d="
M280.228485,516.264771 
	C285.139679,517.718994 290.157318,519.598816 295.268341,521.176147 
	C297.284698,521.798462 299.509155,521.968994 301.638947,521.969543 
	C428.603241,522.003845 555.567627,522.062500 682.531250,521.761963 
	C687.543762,521.750122 692.583496,518.367432 697.540405,516.380432 
	C699.810547,515.470337 701.910339,514.135376 704.449707,512.970215 
	C699.738831,519.872253 692.501953,522.807190 684.335754,523.917419 
	C682.200745,524.207642 680.011597,524.166077 677.847351,524.166199 
	C553.356689,524.175720 428.865997,524.155396 304.375366,524.211060 
	C295.477142,524.215088 287.221710,522.739380 280.228485,516.264771 
z"/>
<path fill="#304E68" opacity="1.000000" stroke="none" 
	d="
M271.570801,328.512878 
	C272.148376,329.884369 272.940796,331.694336 272.943054,333.505280 
	C273.012024,389.353424 273.003632,445.201599 272.771881,501.519409 
	C272.536560,501.989014 272.069550,501.994843 272.069550,501.994843 
	C271.817383,500.192261 271.345123,498.389740 271.345001,496.587128 
	C271.340698,440.708679 271.382599,384.830231 271.570801,328.512878 
z"/>
<path fill="#2F4C6C" opacity="1.000000" stroke="none" 
	d="
M708.959473,320.399872 
	C709.170959,319.949768 709.400696,319.975586 709.974915,320.042725 
	C710.360657,358.712463 710.407898,397.340912 710.440674,435.969330 
	C710.457825,456.117065 710.530029,476.265411 710.374268,496.411926 
	C710.347778,499.830078 709.292725,503.240295 708.414551,506.913147 
	C708.408325,488.721283 708.901611,470.270996 708.952454,451.819458 
	C709.072754,408.171906 708.982788,364.523712 708.959473,320.399872 
z"/>
<path fill="#3C597B" opacity="1.000000" stroke="none" 
	d="
M272.029297,502.374878 
	C272.069550,501.994843 272.536560,501.989014 272.770111,501.987152 
	C275.050903,505.097321 277.194183,508.152435 279.091431,511.353363 
	C279.724762,512.421936 279.728729,513.863525 280.030121,515.525024 
	C277.356232,511.528625 274.672638,507.141754 272.029297,502.374878 
z"/>
<path fill="#3C597B" opacity="1.000000" stroke="none" 
	d="
M706.442017,510.931335 
	C706.233765,510.099701 706.284790,509.096100 706.898132,508.035889 
	C707.460388,507.979309 707.919861,507.987183 707.919861,507.987183 
	C707.513672,508.911224 707.107483,509.835266 706.442017,510.931335 
z"/>
<path fill="#2F4C6C" opacity="1.000000" stroke="none" 
	d="
M708.058716,507.782166 
	C707.919861,507.987183 707.460388,507.979309 707.230713,507.978699 
	C707.235901,507.727448 707.470825,507.476746 707.960083,507.154175 
	C708.214355,507.082245 708.197571,507.577179 708.058716,507.782166 
z"/>
<path fill="#2F598B" opacity="1.000000" stroke="none" 
	d="
M412.164520,288.988464 
	C412.114014,287.924225 412.063507,286.860016 412.409241,285.336304 
	C414.189941,283.254486 415.574463,281.632141 417.430176,280.008118 
	C467.611481,280.023346 517.321533,280.040222 567.086426,280.468079 
	C567.433350,282.834717 567.952515,284.787506 567.977112,286.746582 
	C568.073425,294.409851 568.015320,302.075134 568.011108,309.739655 
	C568.007202,316.905884 568.008545,316.877289 561.073608,316.083527 
	C559.592224,315.914032 558.077576,316.023895 556.578247,316.023834 
	C511.923981,316.021881 467.269745,316.022461 422.615479,316.021759 
	C421.282562,316.021759 419.949280,316.031647 418.616852,316.003540 
	C415.378998,315.935242 413.831116,314.483215 413.931976,311.032990 
	C414.107239,305.039795 414.090546,299.034241 413.898651,293.042084 
	C413.854858,291.673737 412.770172,290.338776 412.164520,288.988464 
z"/>
<path fill="#4A6583" opacity="1.000000" stroke="none" 
	d="
M412.071716,289.449890 
	C412.770172,290.338776 413.854858,291.673737 413.898651,293.042084 
	C414.090546,299.034241 414.107239,305.039795 413.931976,311.032990 
	C413.831116,314.483215 415.378998,315.935242 418.616852,316.003540 
	C419.949280,316.031647 421.282562,316.021759 422.615479,316.021759 
	C467.269745,316.022461 511.923981,316.021881 556.578247,316.023834 
	C558.077576,316.023895 559.592224,315.914032 561.073608,316.083527 
	C568.008545,316.877289 568.007202,316.905884 568.011108,309.739655 
	C568.015320,302.075134 568.073425,294.409851 567.977112,286.746582 
	C567.952515,284.787506 567.433350,282.834717 567.354614,280.435974 
	C568.021057,279.520966 568.474243,279.049042 568.927429,278.577148 
	C569.308105,279.173615 570.017944,279.768402 570.020935,280.366821 
	C570.085022,292.997711 570.069458,305.629059 570.069458,318.665375 
	C517.427429,318.665375 464.990662,318.665375 411.978882,318.665375 
	C411.978882,309.079468 411.978882,299.495361 412.071716,289.449890 
z"/>
<path fill="#2D4C6B" opacity="1.000000" stroke="none" 
	d="
M568.477661,278.458099 
	C568.474243,279.049042 568.021057,279.520966 567.299683,280.024994 
	C517.321533,280.040222 467.611481,280.023346 417.447388,279.758362 
	C417.022797,279.179047 417.052216,278.847900 417.081635,278.516724 
	C420.908051,278.442444 424.734497,278.303680 428.560913,278.303680 
	C475.049896,278.303650 521.538879,278.324005 568.477661,278.458099 
z"/>
<path fill="#4A6583" opacity="1.000000" stroke="none" 
	d="
M416.668884,278.379944 
	C417.052216,278.847900 417.022797,279.179047 416.976166,279.760010 
	C415.574463,281.632141 414.189941,283.254486 412.484436,284.942688 
	C412.073486,283.030548 411.983521,281.052521 411.867096,278.492371 
	C413.470459,278.401306 414.863281,278.322235 416.668884,278.379944 
z"/>
</svg>